<svg data-bbox="0 0 16 16" viewBox="0 0 16 16" xmlns="http://www.w3.org/2000/svg" data-type="color">
    <g>
        <path fill="#ffffff" d="M16 0v16H0V0h16z" data-color="1"/>
        <path d="M8.33 5.26c-1.06 0-2.09.41-2.86 1.13-.85.79-1.38 1.96-1.69 3.06-.2.72-.3 1.47-.3 2.22 0 .23 0 .45.03.67.02.27.28.46.55.39.23-.06.47-.09.71-.09a2.732 2.732 0 0 1 1.42.4c.66.4 1.45.61 2.28.58 2.18-.07 3.95-1.84 4.03-4.02a4.184 4.184 0 0 0-4.18-4.34Zm0 6.09a1.91 1.91 0 1 1 0-3.82 1.91 1.91 0 0 1 0 3.82Z" fill="#14aaff" data-color="2"/>
        <path d="M6.62 3.95c0 .55-.29 1.06-.76 1.34-.3.18-.58.38-.83.62-.56.53-.98 1.17-1.29 1.81-.06.13-.25.08-.25-.06V3.95c0-.86.7-1.56 1.56-1.56.86 0 1.56.7 1.56 1.56Z" fill="#0077ff" data-color="3"/>
    </g>
</svg>
